Watching for file changes with StatReloader
error: XDG_RUNTIME_DIR not set in the environment.
ALSA lib confmisc.c:855:(parse_card) cannot find card '0'
ALSA lib conf.c:5178:(_snd_config_evaluate) function snd_func_card_inum returned error: No such file or directory
ALSA lib confmisc.c:422:(snd_func_concat) error evaluating strings
ALSA lib conf.c:5178:(_snd_config_evaluate) function snd_func_concat returned error: No such file or directory
ALSA lib confmisc.c:1334:(snd_func_refer) error evaluating name
ALSA lib conf.c:5178:(_snd_config_evaluate) function snd_func_refer returned error: No such file or directory
ALSA lib conf.c:5701:(snd_config_expand) Evaluate error: No such file or directory
ALSA lib pcm.c:2664:(snd_pcm_open_noupdate) Unknown PCM default
ALSA lib confmisc.c:855:(parse_card) cannot find card '0'
ALSA lib conf.c:5178:(_snd_config_evaluate) function snd_func_card_inum returned error: No such file or directory
ALSA lib confmisc.c:422:(snd_func_concat) error evaluating strings
ALSA lib conf.c:5178:(_snd_config_evaluate) function snd_func_concat returned error: No such file or directory
ALSA lib confmisc.c:1334:(snd_func_refer) error evaluating name
ALSA lib conf.c:5178:(_snd_config_evaluate) function snd_func_refer returned error: No such file or directory
ALSA lib conf.c:5701:(snd_config_expand) Evaluate error: No such file or directory
ALSA lib pcm.c:2664:(snd_pcm_open_noupdate) Unknown PCM default
Error: That port is already in use.
Watching for file changes with StatReloader
error: XDG_RUNTIME_DIR not set in the environment.
ALSA lib confmisc.c:855:(parse_card) cannot find card '0'
ALSA lib conf.c:5178:(_snd_config_evaluate) function snd_func_card_inum returned error: No such file or directory
ALSA lib confmisc.c:422:(snd_func_concat) error evaluating strings
ALSA lib conf.c:5178:(_snd_config_evaluate) function snd_func_concat returned error: No such file or directory
ALSA lib confmisc.c:1334:(snd_func_refer) error evaluating name
ALSA lib conf.c:5178:(_snd_config_evaluate) function snd_func_refer returned error: No such file or directory
ALSA lib conf.c:5701:(snd_config_expand) Evaluate error: No such file or directory
ALSA lib pcm.c:2664:(snd_pcm_open_noupdate) Unknown PCM default
ALSA lib confmisc.c:855:(parse_card) cannot find card '0'
ALSA lib conf.c:5178:(_snd_config_evaluate) function snd_func_card_inum returned error: No such file or directory
ALSA lib confmisc.c:422:(snd_func_concat) error evaluating strings
ALSA lib conf.c:5178:(_snd_config_evaluate) function snd_func_concat returned error: No such file or directory
ALSA lib confmisc.c:1334:(snd_func_refer) error evaluating name
ALSA lib conf.c:5178:(_snd_config_evaluate) function snd_func_refer returned error: No such file or directory
ALSA lib conf.c:5701:(snd_config_expand) Evaluate error: No such file or directory
ALSA lib pcm.c:2664:(snd_pcm_open_noupdate) Unknown PCM default
Watching for file changes with StatReloader
error: XDG_RUNTIME_DIR not set in the environment.
ALSA lib confmisc.c:855:(parse_card) cannot find card '0'
ALSA lib conf.c:5178:(_snd_config_evaluate) function snd_func_card_inum returned error: No such file or directory
ALSA lib confmisc.c:422:(snd_func_concat) error evaluating strings
ALSA lib conf.c:5178:(_snd_config_evaluate) function snd_func_concat returned error: No such file or directory
ALSA lib confmisc.c:1334:(snd_func_refer) error evaluating name
ALSA lib conf.c:5178:(_snd_config_evaluate) function snd_func_refer returned error: No such file or directory
ALSA lib conf.c:5701:(snd_config_expand) Evaluate error: No such file or directory
ALSA lib pcm.c:2664:(snd_pcm_open_noupdate) Unknown PCM default
ALSA lib confmisc.c:855:(parse_card) cannot find card '0'
ALSA lib conf.c:5178:(_snd_config_evaluate) function snd_func_card_inum returned error: No such file or directory
ALSA lib confmisc.c:422:(snd_func_concat) error evaluating strings
ALSA lib conf.c:5178:(_snd_config_evaluate) function snd_func_concat returned error: No such file or directory
ALSA lib confmisc.c:1334:(snd_func_refer) error evaluating name
ALSA lib conf.c:5178:(_snd_config_evaluate) function snd_func_refer returned error: No such file or directory
ALSA lib conf.c:5701:(snd_config_expand) Evaluate error: No such file or directory
ALSA lib pcm.c:2664:(snd_pcm_open_noupdate) Unknown PCM default
Exception in thread django-main-thread:
Traceback (most recent call last):
  File "/usr/local/lib/python3.10/dist-packages/django/db/backends/base/base.py", line 275, in ensure_connection
    self.connect()
  File "/usr/local/lib/python3.10/dist-packages/django/utils/asyncio.py", line 26, in inner
    return func(*args, **kwargs)
  File "/usr/local/lib/python3.10/dist-packages/django/db/backends/base/base.py", line 256, in connect
    self.connection = self.get_new_connection(conn_params)
  File "/usr/local/lib/python3.10/dist-packages/django/utils/asyncio.py", line 26, in inner
    return func(*args, **kwargs)
  File "/usr/local/lib/python3.10/dist-packages/django/db/backends/mysql/base.py", line 256, in get_new_connection
    connection = Database.connect(**conn_params)
  File "/usr/local/lib/python3.10/dist-packages/MySQLdb/__init__.py", line 121, in Connect
    return Connection(*args, **kwargs)
  File "/usr/local/lib/python3.10/dist-packages/MySQLdb/connections.py", line 195, in __init__
    super().__init__(*args, **kwargs2)
MySQLdb.OperationalError: (2002, "Can't connect to local MySQL server through socket '/var/run/mysqld/mysqld.sock' (2)")

The above exception was the direct cause of the following exception:

Traceback (most recent call last):
  File "/usr/lib/python3.10/threading.py", line 1016, in _bootstrap_inner
    self.run()
  File "/usr/lib/python3.10/threading.py", line 953, in run
    self._target(*self._args, **self._kwargs)
  File "/usr/local/lib/python3.10/dist-packages/django/utils/autoreload.py", line 64, in wrapper
    fn(*args, **kwargs)
  File "/usr/local/lib/python3.10/dist-packages/django/core/management/commands/runserver.py", line 136, in inner_run
    self.check_migrations()
  File "/usr/local/lib/python3.10/dist-packages/django/core/management/base.py", line 581, in check_migrations
    executor = MigrationExecutor(connections[DEFAULT_DB_ALIAS])
  File "/usr/local/lib/python3.10/dist-packages/django/db/migrations/executor.py", line 18, in __init__
    self.loader = MigrationLoader(self.connection)
  File "/usr/local/lib/python3.10/dist-packages/django/db/migrations/loader.py", line 58, in __init__
    self.build_graph()
  File "/usr/local/lib/python3.10/dist-packages/django/db/migrations/loader.py", line 235, in build_graph
    self.applied_migrations = recorder.applied_migrations()
  File "/usr/local/lib/python3.10/dist-packages/django/db/migrations/recorder.py", line 89, in applied_migrations
    if self.has_table():
  File "/usr/local/lib/python3.10/dist-packages/django/db/migrations/recorder.py", line 63, in has_table
    with self.connection.cursor() as cursor:
  File "/usr/local/lib/python3.10/dist-packages/django/utils/asyncio.py", line 26, in inner
    return func(*args, **kwargs)
  File "/usr/local/lib/python3.10/dist-packages/django/db/backends/base/base.py", line 316, in cursor
    return self._cursor()
  File "/usr/local/lib/python3.10/dist-packages/django/db/backends/base/base.py", line 292, in _cursor
    self.ensure_connection()
  File "/usr/local/lib/python3.10/dist-packages/django/utils/asyncio.py", line 26, in inner
    return func(*args, **kwargs)
  File "/usr/local/lib/python3.10/dist-packages/django/db/backends/base/base.py", line 274, in ensure_connection
    with self.wrap_database_errors:
  File "/usr/local/lib/python3.10/dist-packages/django/db/utils.py", line 91, in __exit__
    raise dj_exc_value.with_traceback(traceback) from exc_value
  File "/usr/local/lib/python3.10/dist-packages/django/db/backends/base/base.py", line 275, in ensure_connection
    self.connect()
  File "/usr/local/lib/python3.10/dist-packages/django/utils/asyncio.py", line 26, in inner
    return func(*args, **kwargs)
  File "/usr/local/lib/python3.10/dist-packages/django/db/backends/base/base.py", line 256, in connect
    self.connection = self.get_new_connection(conn_params)
  File "/usr/local/lib/python3.10/dist-packages/django/utils/asyncio.py", line 26, in inner
    return func(*args, **kwargs)
  File "/usr/local/lib/python3.10/dist-packages/django/db/backends/mysql/base.py", line 256, in get_new_connection
    connection = Database.connect(**conn_params)
  File "/usr/local/lib/python3.10/dist-packages/MySQLdb/__init__.py", line 121, in Connect
    return Connection(*args, **kwargs)
  File "/usr/local/lib/python3.10/dist-packages/MySQLdb/connections.py", line 195, in __init__
    super().__init__(*args, **kwargs2)
django.db.utils.OperationalError: (2002, "Can't connect to local MySQL server through socket '/var/run/mysqld/mysqld.sock' (2)")
Watching for file changes with StatReloader
error: XDG_RUNTIME_DIR not set in the environment.
ALSA lib confmisc.c:855:(parse_card) cannot find card '0'
ALSA lib conf.c:5178:(_snd_config_evaluate) function snd_func_card_inum returned error: No such file or directory
ALSA lib confmisc.c:422:(snd_func_concat) error evaluating strings
ALSA lib conf.c:5178:(_snd_config_evaluate) function snd_func_concat returned error: No such file or directory
ALSA lib confmisc.c:1334:(snd_func_refer) error evaluating name
ALSA lib conf.c:5178:(_snd_config_evaluate) function snd_func_refer returned error: No such file or directory
ALSA lib conf.c:5701:(snd_config_expand) Evaluate error: No such file or directory
ALSA lib pcm.c:2664:(snd_pcm_open_noupdate) Unknown PCM default
ALSA lib confmisc.c:855:(parse_card) cannot find card '0'
ALSA lib conf.c:5178:(_snd_config_evaluate) function snd_func_card_inum returned error: No such file or directory
ALSA lib confmisc.c:422:(snd_func_concat) error evaluating strings
ALSA lib conf.c:5178:(_snd_config_evaluate) function snd_func_concat returned error: No such file or directory
ALSA lib confmisc.c:1334:(snd_func_refer) error evaluating name
ALSA lib conf.c:5178:(_snd_config_evaluate) function snd_func_refer returned error: No such file or directory
ALSA lib conf.c:5701:(snd_config_expand) Evaluate error: No such file or directory
ALSA lib pcm.c:2664:(snd_pcm_open_noupdate) Unknown PCM default
[27/May/2024 18:24:43] "GET / HTTP/1.1" 200 4518
Performing system checks...

System check identified no issues (0 silenced).
May 27, 2024 - 18:24:13
Django version 5.0.6, using settings 'project.settings'
Starting development server at http://0.0.0.0:8000/
Quit the server with CONTROL-C.

22 56
Moviepy - Building video out/moviepy_output.mp4.
Moviepy - Writing video out/moviepy_output.mp4

t:   0%|          | 0/75 [00:00<?, ?it/s, now=None]                                                   ALSA lib confmisc.c:855:(parse_card) cannot find card '0'
ALSA lib conf.c:5178:(_snd_config_evaluate) function snd_func_card_inum returned error: No such file or directory
ALSA lib confmisc.c:422:(snd_func_concat) error evaluating strings
ALSA lib conf.c:5178:(_snd_config_evaluate) function snd_func_concat returned error: No such file or directory
ALSA lib confmisc.c:1334:(snd_func_refer) error evaluating name
ALSA lib conf.c:5178:(_snd_config_evaluate) function snd_func_refer returned error: No such file or directory
ALSA lib conf.c:5701:(snd_config_expand) Evaluate error: No such file or directory
ALSA lib pcm.c:2664:(snd_pcm_open_noupdate) Unknown PCM default
ffmpeg version 4.4.2-0ubuntu0.22.04.1 Copyright (c) 2000-2021 the FFmpeg developers
  built with gcc 11 (Ubuntu 11.2.0-19ubuntu1)
  configuration: --prefix=/usr --extra-version=0ubuntu0.22.04.1 --toolchain=hardened --libdir=/usr/lib/x86_64-linux-gnu --incdir=/usr/include/x86_64-linux-gnu --arch=amd64 --enable-gpl --disable-stripping --enable-gnutls --enable-ladspa --enable-libaom --enable-libass --enable-libbluray --enable-libbs2b --enable-libcaca --enable-libcdio --enable-libcodec2 --enable-libdav1d --enable-libflite --enable-libfontconfig --enable-libfreetype --enable-libfribidi --enable-libgme --enable-libgsm --enable-libjack --enable-libmp3lame --enable-libmysofa --enable-libopenjpeg --enable-libopenmpt --enable-libopus --enable-libpulse --enable-librabbitmq --enable-librubberband --enable-libshine --enable-libsnappy --enable-libsoxr --enable-libspeex --enable-libsrt --enable-libssh --enable-libtheora --enable-libtwolame --enable-libvidstab --enable-libvorbis --enable-libvpx --enable-libwebp --enable-libx265 --enable-libxml2 --enable-libxvid --enable-libzimg --enable-libzmq --enable-libzvbi --enable-lv2 --enable-omx --enable-openal --enable-opencl --enable-opengl --enable-sdl2 --enable-pocketsphinx --enable-librsvg --enable-libmfx --enable-libdc1394 --enable-libdrm --enable-libiec61883 --enable-chromaprint --enable-frei0r --enable-libx264 --enable-shared
  libavutil      56. 70.100 / 56. 70.100
  libavcodec     58.134.100 / 58.134.100
  libavformat    58. 76.100 / 58. 76.100
  libavdevice    58. 13.100 / 58. 13.100
  libavfilter     7.110.100 /  7.110.100
  libswscale      5.  9.100 /  5.  9.100
  libswresample   3.  9.100 /  3.  9.100
  libpostproc    55.  9.100 / 55.  9.100
Input #0, mov,mp4,m4a,3gp,3g2,mj2, from './data/background.mp4':
  Metadata:
    major_brand     : isom
    minor_version   : 512
    compatible_brands: isomiso2avc1mp41
    encoder         : Lavf61.3.103
  Duration: 00:00:03.00, start: 0.000000, bitrate: 9 kb/s
  Stream #0:0(und): Video: h264 (High) (avc1 / 0x31637661), yuv420p, 100x100 [SAR 1:1 DAR 1:1], 4 kb/s, 25 fps, 25 tbr, 12800 tbn, 50 tbc (default)
    Metadata:
      handler_name    : VideoHandler
      vendor_id       : [0][0][0][0]
      encoder         : Lavc61.5.104 libx264
Stream mapping:
  Stream #0:0 -> #0:0 (h264 (native) -> h264 (libx264))
Press [q] to stop, [?] for help
[libx264 @ 0x55e30bbc07c0] using SAR=1/1
[libx264 @ 0x55e30bbc07c0] using cpu capabilities: MMX2 SSE2Fast SSSE3 SSE4.2 AVX FMA3 BMI2 AVX2
[libx264 @ 0x55e30bbc07c0] profile High, level 1.0, 4:2:0, 8-bit
[libx264 @ 0x55e30bbc07c0] 264 - core 163 r3060 5db6aa6 - H.264/MPEG-4 AVC codec - Copyleft 2003-2021 - http://www.videolan.org/x264.html - options: cabac=1 ref=3 deblock=1:0:0 analyse=0x3:0x113 me=hex subme=7 psy=1 psy_rd=1.00:0.00 mixed_ref=1 me_range=16 chroma_me=1 trellis=1 8x8dct=1 cqm=0 deadzone=21,11 fast_pskip=1 chroma_qp_offset=-2 threads=3 lookahead_threads=1 sliced_threads=0 nr=0 decimate=1 interlaced=0 bluray_compat=0 constrained_intra=0 bframes=3 b_pyramid=2 b_adapt=1 b_bias=0 direct=1 weightb=1 open_gop=0 weightp=2 keyint=250 keyint_min=25 scenecut=40 intra_refresh=0 rc_lookahead=40 rc=crf mbtree=1 crf=23.0 qcomp=0.60 qpmin=0 qpmax=69 qpstep=4 ip_ratio=1.40 aq=1:1.00
Output #0, mp4, to 'out/ffmpeg_output.mp4':
  Metadata:
    major_brand     : isom
    minor_version   : 512
    compatible_brands: isomiso2avc1mp41
    encoder         : Lavf58.76.100
  Stream #0:0(und): Video: h264 (avc1 / 0x31637661), yuv420p(progressive), 100x100 [SAR 1:1 DAR 1:1], q=2-31, 25 fps, 12800 tbn (default)
    Metadata:
      handler_name    : VideoHandler
      vendor_id       : [0][0][0][0]
      encoder         : Lavc58.134.100 libx264
    Side data:
      cpb: bitrate max/min/avg: 0/0/0 buffer size: 0 vbv_delay: N/A
frame=    1 fps=0.0 q=0.0 size=       0kB time=00:00:00.00 bitrate=N/A speed=   0x    frame=   75 fps=0.0 q=-1.0 Lsize=      10kB time=00:00:02.88 bitrate=  28.2kbits/s speed=38.1x    
video:8kB audio:0kB subtitle:0kB other streams:0kB global headers:0kB muxing overhead: 17.691328%
[libx264 @ 0x55e30bbc07c0] frame I:1     Avg QP: 7.78  size:    55
[libx264 @ 0x55e30bbc07c0] frame P:48    Avg QP:16.83  size:   134
[libx264 @ 0x55e30bbc07c0] frame B:26    Avg QP:18.29  size:    57
[libx264 @ 0x55e30bbc07c0] consecutive B-frames: 45.3% 18.7% 20.0% 16.0%
[libx264 @ 0x55e30bbc07c0] mb I  I16..4: 100.0%  0.0%  0.0%
[libx264 @ 0x55e30bbc07c0] mb P  I16..4:  5.4%  1.2%  2.2%  P16..4: 22.1%  3.7%  1.1%  0.0%  0.0%    skip:64.2%
[libx264 @ 0x55e30bbc07c0] mb B  I16..4:  1.8%  0.3%  0.1%  B16..8: 21.7%  2.0%  0.1%  direct: 2.4%  skip:71.7%  L0:50.8% L1:48.6% BI: 0.7%
[libx264 @ 0x55e30bbc07c0] 8x8 transform intra:11.5% inter:28.8%
[libx264 @ 0x55e30bbc07c0] coded y,uvDC,uvAC intra: 8.4% 29.0% 25.2% inter: 1.1% 6.3% 5.1%
[libx264 @ 0x55e30bbc07c0] i16 v,h,dc,p: 90%  6%  4%  0%
[libx264 @ 0x55e30bbc07c0] i8 v,h,dc,ddl,ddr,vr,hd,vl,hu: 18%  5% 77%  0%  0%  0%  1%  0%  0%
[libx264 @ 0x55e30bbc07c0] i4 v,h,dc,ddl,ddr,vr,hd,vl,hu: 51% 26% 19%  1%  0%  1%  0%  1%  0%
[libx264 @ 0x55e30bbc07c0] i8c dc,h,v,p: 32% 10% 58%  1%
[libx264 @ 0x55e30bbc07c0] Weighted P-Frames: Y:0.0% UV:0.0%
[libx264 @ 0x55e30bbc07c0] ref P L0: 35.0%  0.7% 46.0% 18.2%
[libx264 @ 0x55e30bbc07c0] ref B L0: 69.6% 25.0%  5.4%
[libx264 @ 0x55e30bbc07c0] ref B L1: 98.7%  1.3%
[libx264 @ 0x55e30bbc07c0] kb/s:21.19
[27/May/2024 18:24:51] "GET /?text=%D0%9F%D0%A0%D0%98%D0%92%D0%95%D0%A2 HTTP/1.1" 302 0
[27/May/2024 18:24:51] "GET /downloads/ HTTP/1.1" 200 98925
[27/May/2024 18:24:54] "GET /update/ HTTP/1.1" 200 279
Moviepy - Done !
Moviepy - video ready out/moviepy_output.mp4
Watching for file changes with StatReloader
error: XDG_RUNTIME_DIR not set in the environment.
ALSA lib confmisc.c:855:(parse_card) cannot find card '0'
ALSA lib conf.c:5178:(_snd_config_evaluate) function snd_func_card_inum returned error: No such file or directory
ALSA lib confmisc.c:422:(snd_func_concat) error evaluating strings
ALSA lib conf.c:5178:(_snd_config_evaluate) function snd_func_concat returned error: No such file or directory
ALSA lib confmisc.c:1334:(snd_func_refer) error evaluating name
ALSA lib conf.c:5178:(_snd_config_evaluate) function snd_func_refer returned error: No such file or directory
ALSA lib conf.c:5701:(snd_config_expand) Evaluate error: No such file or directory
ALSA lib pcm.c:2664:(snd_pcm_open_noupdate) Unknown PCM default
ALSA lib confmisc.c:855:(parse_card) cannot find card '0'
ALSA lib conf.c:5178:(_snd_config_evaluate) function snd_func_card_inum returned error: No such file or directory
ALSA lib confmisc.c:422:(snd_func_concat) error evaluating strings
ALSA lib conf.c:5178:(_snd_config_evaluate) function snd_func_concat returned error: No such file or directory
ALSA lib confmisc.c:1334:(snd_func_refer) error evaluating name
ALSA lib conf.c:5178:(_snd_config_evaluate) function snd_func_refer returned error: No such file or directory
ALSA lib conf.c:5701:(snd_config_expand) Evaluate error: No such file or directory
ALSA lib pcm.c:2664:(snd_pcm_open_noupdate) Unknown PCM default
[27/May/2024 18:25:20] "GET / HTTP/1.1" 200 4540
Performing system checks...

System check identified no issues (0 silenced).
May 27, 2024 - 18:25:19
Django version 5.0.6, using settings 'project.settings'
Starting development server at http://0.0.0.0:8000/
Quit the server with CONTROL-C.

22 56
Moviepy - Building video out/moviepy_output.mp4.
Moviepy - Writing video out/moviepy_output.mp4

t:   0%|          | 0/75 [00:00<?, ?it/s, now=None]                                                   ALSA lib confmisc.c:855:(parse_card) cannot find card '0'
ALSA lib conf.c:5178:(_snd_config_evaluate) function snd_func_card_inum returned error: No such file or directory
ALSA lib confmisc.c:422:(snd_func_concat) error evaluating strings
ALSA lib conf.c:5178:(_snd_config_evaluate) function snd_func_concat returned error: No such file or directory
ALSA lib confmisc.c:1334:(snd_func_refer) error evaluating name
ALSA lib conf.c:5178:(_snd_config_evaluate) function snd_func_refer returned error: No such file or directory
ALSA lib conf.c:5701:(snd_config_expand) Evaluate error: No such file or directory
ALSA lib pcm.c:2664:(snd_pcm_open_noupdate) Unknown PCM default
ffmpeg version 4.4.2-0ubuntu0.22.04.1 Copyright (c) 2000-2021 the FFmpeg developers
  built with gcc 11 (Ubuntu 11.2.0-19ubuntu1)
  configuration: --prefix=/usr --extra-version=0ubuntu0.22.04.1 --toolchain=hardened --libdir=/usr/lib/x86_64-linux-gnu --incdir=/usr/include/x86_64-linux-gnu --arch=amd64 --enable-gpl --disable-stripping --enable-gnutls --enable-ladspa --enable-libaom --enable-libass --enable-libbluray --enable-libbs2b --enable-libcaca --enable-libcdio --enable-libcodec2 --enable-libdav1d --enable-libflite --enable-libfontconfig --enable-libfreetype --enable-libfribidi --enable-libgme --enable-libgsm --enable-libjack --enable-libmp3lame --enable-libmysofa --enable-libopenjpeg --enable-libopenmpt --enable-libopus --enable-libpulse --enable-librabbitmq --enable-librubberband --enable-libshine --enable-libsnappy --enable-libsoxr --enable-libspeex --enable-libsrt --enable-libssh --enable-libtheora --enable-libtwolame --enable-libvidstab --enable-libvorbis --enable-libvpx --enable-libwebp --enable-libx265 --enable-libxml2 --enable-libxvid --enable-libzimg --enable-libzmq --enable-libzvbi --enable-lv2 --enable-omx --enable-openal --enable-opencl --enable-opengl --enable-sdl2 --enable-pocketsphinx --enable-librsvg --enable-libmfx --enable-libdc1394 --enable-libdrm --enable-libiec61883 --enable-chromaprint --enable-frei0r --enable-libx264 --enable-shared
  libavutil      56. 70.100 / 56. 70.100
  libavcodec     58.134.100 / 58.134.100
  libavformat    58. 76.100 / 58. 76.100
  libavdevice    58. 13.100 / 58. 13.100
  libavfilter     7.110.100 /  7.110.100
  libswscale      5.  9.100 /  5.  9.100
  libswresample   3.  9.100 /  3.  9.100
  libpostproc    55.  9.100 / 55.  9.100
Input #0, mov,mp4,m4a,3gp,3g2,mj2, from './data/background.mp4':
  Metadata:
    major_brand     : isom
    minor_version   : 512
    compatible_brands: isomiso2avc1mp41
    encoder         : Lavf61.3.103
  Duration: 00:00:03.00, start: 0.000000, bitrate: 9 kb/s
  Stream #0:0(und): Video: h264 (High) (avc1 / 0x31637661), yuv420p, 100x100 [SAR 1:1 DAR 1:1], 4 kb/s, 25 fps, 25 tbr, 12800 tbn, 50 tbc (default)
    Metadata:
      handler_name    : VideoHandler
      vendor_id       : [0][0][0][0]
      encoder         : Lavc61.5.104 libx264
Stream mapping:
  Stream #0:0 -> #0:0 (h264 (native) -> h264 (libx264))
Press [q] to stop, [?] for help
[libx264 @ 0x5576927bd7c0] using SAR=1/1
[libx264 @ 0x5576927bd7c0] using cpu capabilities: MMX2 SSE2Fast SSSE3 SSE4.2 AVX FMA3 BMI2 AVX2
[libx264 @ 0x5576927bd7c0] profile High, level 1.0, 4:2:0, 8-bit
[libx264 @ 0x5576927bd7c0] 264 - core 163 r3060 5db6aa6 - H.264/MPEG-4 AVC codec - Copyleft 2003-2021 - http://www.videolan.org/x264.html - options: cabac=1 ref=3 deblock=1:0:0 analyse=0x3:0x113 me=hex subme=7 psy=1 psy_rd=1.00:0.00 mixed_ref=1 me_range=16 chroma_me=1 trellis=1 8x8dct=1 cqm=0 deadzone=21,11 fast_pskip=1 chroma_qp_offset=-2 threads=3 lookahead_threads=1 sliced_threads=0 nr=0 decimate=1 interlaced=0 bluray_compat=0 constrained_intra=0 bframes=3 b_pyramid=2 b_adapt=1 b_bias=0 direct=1 weightb=1 open_gop=0 weightp=2 keyint=250 keyint_min=25 scenecut=40 intra_refresh=0 rc_lookahead=40 rc=crf mbtree=1 crf=23.0 qcomp=0.60 qpmin=0 qpmax=69 qpstep=4 ip_ratio=1.40 aq=1:1.00
Output #0, mp4, to 'out/ffmpeg_output.mp4':
  Metadata:
    major_brand     : isom
    minor_version   : 512
    compatible_brands: isomiso2avc1mp41
    encoder         : Lavf58.76.100
  Stream #0:0(und): Video: h264 (avc1 / 0x31637661), yuv420p(progressive), 100x100 [SAR 1:1 DAR 1:1], q=2-31, 25 fps, 12800 tbn (default)
    Metadata:
      handler_name    : VideoHandler
      vendor_id       : [0][0][0][0]
      encoder         : Lavc58.134.100 libx264
    Side data:
      cpb: bitrate max/min/avg: 0/0/0 buffer size: 0 vbv_delay: N/A
frame=    1 fps=0.0 q=0.0 size=       0kB time=00:00:00.00 bitrate=N/A speed=   0x    frame=   75 fps=0.0 q=-1.0 Lsize=      16kB time=00:00:02.88 bitrate=  45.2kbits/s speed=40.7x    
video:14kB audio:0kB subtitle:0kB other streams:0kB global headers:0kB muxing overhead: 9.538566%
[libx264 @ 0x5576927bd7c0] frame I:1     Avg QP: 8.24  size:    55
[libx264 @ 0x5576927bd7c0] frame P:57    Avg QP:18.59  size:   234
[libx264 @ 0x5576927bd7c0] frame B:17    Avg QP:17.07  size:    46
[libx264 @ 0x5576927bd7c0] consecutive B-frames: 62.7% 16.0% 16.0%  5.3%
[libx264 @ 0x5576927bd7c0] mb I  I16..4: 100.0%  0.0%  0.0%
[libx264 @ 0x5576927bd7c0] mb P  I16..4:  2.4%  2.0%  2.9%  P16..4: 23.3%  5.3%  2.0%  0.0%  0.0%    skip:62.1%
[libx264 @ 0x5576927bd7c0] mb B  I16..4:  1.7%  0.1%  0.2%  B16..8: 19.9%  3.7%  0.1%  direct: 0.2%  skip:73.9%  L0:50.3% L1:49.2% BI: 0.5%
[libx264 @ 0x5576927bd7c0] 8x8 transform intra:20.7% inter:13.3%
[libx264 @ 0x5576927bd7c0] coded y,uvDC,uvAC intra: 11.6% 39.6% 35.9% inter: 2.8% 12.8% 10.8%
[libx264 @ 0x5576927bd7c0] i16 v,h,dc,p: 92%  2%  6%  0%
[libx264 @ 0x5576927bd7c0] i8 v,h,dc,ddl,ddr,vr,hd,vl,hu:  5%  7% 86%  0%  1%  0%  0%  0%  0%
[libx264 @ 0x5576927bd7c0] i4 v,h,dc,ddl,ddr,vr,hd,vl,hu: 53% 26% 15%  1%  1%  2%  1%  1%  0%
[libx264 @ 0x5576927bd7c0] i8c dc,h,v,p: 43%  8% 46%  4%
[libx264 @ 0x5576927bd7c0] Weighted P-Frames: Y:0.0% UV:0.0%
[libx264 @ 0x5576927bd7c0] ref P L0: 69.4%  2.8% 10.9% 16.9%
[libx264 @ 0x5576927bd7c0] ref B L0: 89.2%  8.8%  2.0%
[libx264 @ 0x5576927bd7c0] kb/s:37.75
[27/May/2024 18:25:32] "GET /?text=Hello+Wolrd%21 HTTP/1.1" 302 0
[27/May/2024 18:25:32] "GET /downloads/ HTTP/1.1" 200 136657
[27/May/2024 18:25:46] "GET / HTTP/1.1" 200 4520
Watching for file changes with StatReloader
error: XDG_RUNTIME_DIR not set in the environment.
ALSA lib confmisc.c:855:(parse_card) cannot find card '0'
ALSA lib conf.c:5178:(_snd_config_evaluate) function snd_func_card_inum returned error: No such file or directory
ALSA lib confmisc.c:422:(snd_func_concat) error evaluating strings
ALSA lib conf.c:5178:(_snd_config_evaluate) function snd_func_concat returned error: No such file or directory
ALSA lib confmisc.c:1334:(snd_func_refer) error evaluating name
ALSA lib conf.c:5178:(_snd_config_evaluate) function snd_func_refer returned error: No such file or directory
ALSA lib conf.c:5701:(snd_config_expand) Evaluate error: No such file or directory
ALSA lib pcm.c:2664:(snd_pcm_open_noupdate) Unknown PCM default
ALSA lib confmisc.c:855:(parse_card) cannot find card '0'
ALSA lib conf.c:5178:(_snd_config_evaluate) function snd_func_card_inum returned error: No such file or directory
ALSA lib confmisc.c:422:(snd_func_concat) error evaluating strings
ALSA lib conf.c:5178:(_snd_config_evaluate) function snd_func_concat returned error: No such file or directory
ALSA lib confmisc.c:1334:(snd_func_refer) error evaluating name
ALSA lib conf.c:5178:(_snd_config_evaluate) function snd_func_refer returned error: No such file or directory
ALSA lib conf.c:5701:(snd_config_expand) Evaluate error: No such file or directory
ALSA lib pcm.c:2664:(snd_pcm_open_noupdate) Unknown PCM default
[27/May/2024 18:28:21] "GET / HTTP/1.1" 200 4520
Performing system checks...

System check identified no issues (0 silenced).
May 27, 2024 - 18:28:16
Django version 5.0.6, using settings 'project.settings'
Starting development server at http://0.0.0.0:8000/
Quit the server with CONTROL-C.

22 56
Moviepy - Building video out/moviepy_output.mp4.
Moviepy - Writing video out/moviepy_output.mp4

t:   0%|          | 0/75 [00:00<?, ?it/s, now=None]t:  60%|██████    | 45/75 [00:00<00:00, 449.40it/s, now=None]                                                             ALSA lib confmisc.c:855:(parse_card) cannot find card '0'
ALSA lib conf.c:5178:(_snd_config_evaluate) function snd_func_card_inum returned error: No such file or directory
ALSA lib confmisc.c:422:(snd_func_concat) error evaluating strings
ALSA lib conf.c:5178:(_snd_config_evaluate) function snd_func_concat returned error: No such file or directory
ALSA lib confmisc.c:1334:(snd_func_refer) error evaluating name
ALSA lib conf.c:5178:(_snd_config_evaluate) function snd_func_refer returned error: No such file or directory
ALSA lib conf.c:5701:(snd_config_expand) Evaluate error: No such file or directory
ALSA lib pcm.c:2664:(snd_pcm_open_noupdate) Unknown PCM default
ffmpeg version 4.4.2-0ubuntu0.22.04.1 Copyright (c) 2000-2021 the FFmpeg developers
  built with gcc 11 (Ubuntu 11.2.0-19ubuntu1)
  configuration: --prefix=/usr --extra-version=0ubuntu0.22.04.1 --toolchain=hardened --libdir=/usr/lib/x86_64-linux-gnu --incdir=/usr/include/x86_64-linux-gnu --arch=amd64 --enable-gpl --disable-stripping --enable-gnutls --enable-ladspa --enable-libaom --enable-libass --enable-libbluray --enable-libbs2b --enable-libcaca --enable-libcdio --enable-libcodec2 --enable-libdav1d --enable-libflite --enable-libfontconfig --enable-libfreetype --enable-libfribidi --enable-libgme --enable-libgsm --enable-libjack --enable-libmp3lame --enable-libmysofa --enable-libopenjpeg --enable-libopenmpt --enable-libopus --enable-libpulse --enable-librabbitmq --enable-librubberband --enable-libshine --enable-libsnappy --enable-libsoxr --enable-libspeex --enable-libsrt --enable-libssh --enable-libtheora --enable-libtwolame --enable-libvidstab --enable-libvorbis --enable-libvpx --enable-libwebp --enable-libx265 --enable-libxml2 --enable-libxvid --enable-libzimg --enable-libzmq --enable-libzvbi --enable-lv2 --enable-omx --enable-openal --enable-opencl --enable-opengl --enable-sdl2 --enable-pocketsphinx --enable-librsvg --enable-libmfx --enable-libdc1394 --enable-libdrm --enable-libiec61883 --enable-chromaprint --enable-frei0r --enable-libx264 --enable-shared
  libavutil      56. 70.100 / 56. 70.100
  libavcodec     58.134.100 / 58.134.100
  libavformat    58. 76.100 / 58. 76.100
  libavdevice    58. 13.100 / 58. 13.100
  libavfilter     7.110.100 /  7.110.100
  libswscale      5.  9.100 /  5.  9.100
  libswresample   3.  9.100 /  3.  9.100
  libpostproc    55.  9.100 / 55.  9.100
Input #0, mov,mp4,m4a,3gp,3g2,mj2, from './data/background.mp4':
  Metadata:
    major_brand     : isom
    minor_version   : 512
    compatible_brands: isomiso2avc1mp41
    encoder         : Lavf61.3.103
  Duration: 00:00:03.00, start: 0.000000, bitrate: 9 kb/s
  Stream #0:0(und): Video: h264 (High) (avc1 / 0x31637661), yuv420p, 100x100 [SAR 1:1 DAR 1:1], 4 kb/s, 25 fps, 25 tbr, 12800 tbn, 50 tbc (default)
    Metadata:
      handler_name    : VideoHandler
      vendor_id       : [0][0][0][0]
      encoder         : Lavc61.5.104 libx264
Stream mapping:
  Stream #0:0 -> #0:0 (h264 (native) -> h264 (libx264))
Press [q] to stop, [?] for help
[libx264 @ 0x55b2d1ccd7c0] using SAR=1/1
[libx264 @ 0x55b2d1ccd7c0] using cpu capabilities: MMX2 SSE2Fast SSSE3 SSE4.2 AVX FMA3 BMI2 AVX2
[libx264 @ 0x55b2d1ccd7c0] profile High, level 1.0, 4:2:0, 8-bit
[libx264 @ 0x55b2d1ccd7c0] 264 - core 163 r3060 5db6aa6 - H.264/MPEG-4 AVC codec - Copyleft 2003-2021 - http://www.videolan.org/x264.html - options: cabac=1 ref=3 deblock=1:0:0 analyse=0x3:0x113 me=hex subme=7 psy=1 psy_rd=1.00:0.00 mixed_ref=1 me_range=16 chroma_me=1 trellis=1 8x8dct=1 cqm=0 deadzone=21,11 fast_pskip=1 chroma_qp_offset=-2 threads=3 lookahead_threads=1 sliced_threads=0 nr=0 decimate=1 interlaced=0 bluray_compat=0 constrained_intra=0 bframes=3 b_pyramid=2 b_adapt=1 b_bias=0 direct=1 weightb=1 open_gop=0 weightp=2 keyint=250 keyint_min=25 scenecut=40 intra_refresh=0 rc_lookahead=40 rc=crf mbtree=1 crf=23.0 qcomp=0.60 qpmin=0 qpmax=69 qpstep=4 ip_ratio=1.40 aq=1:1.00
Output #0, mp4, to 'out/ffmpeg_output.mp4':
  Metadata:
    major_brand     : isom
    minor_version   : 512
    compatible_brands: isomiso2avc1mp41
    encoder         : Lavf58.76.100
  Stream #0:0(und): Video: h264 (avc1 / 0x31637661), yuv420p(progressive), 100x100 [SAR 1:1 DAR 1:1], q=2-31, 25 fps, 12800 tbn (default)
    Metadata:
      handler_name    : VideoHandler
      vendor_id       : [0][0][0][0]
      encoder         : Lavc58.134.100 libx264
    Side data:
      cpb: bitrate max/min/avg: 0/0/0 buffer size: 0 vbv_delay: N/A
frame=    1 fps=0.0 q=0.0 size=       0kB time=00:00:00.00 bitrate=N/A speed=   0x    frame=   75 fps=0.0 q=-1.0 Lsize=      12kB time=00:00:02.88 bitrate=  33.8kbits/s speed=37.5x    
video:10kB audio:0kB subtitle:0kB other streams:0kB global headers:0kB muxing overhead: 13.607476%
[libx264 @ 0x55b2d1ccd7c0] frame I:1     Avg QP: 7.51  size:    55
[libx264 @ 0x55b2d1ccd7c0] frame P:60    Avg QP:17.68  size:   159
[libx264 @ 0x55b2d1ccd7c0] frame B:14    Avg QP:15.07  size:    31
[libx264 @ 0x55b2d1ccd7c0] consecutive B-frames: 65.3% 29.3%  0.0%  5.3%
[libx264 @ 0x55b2d1ccd7c0] mb I  I16..4: 100.0%  0.0%  0.0%
[libx264 @ 0x55b2d1ccd7c0] mb P  I16..4:  2.3%  0.7%  2.2%  P16..4: 17.8%  2.8%  1.1%  0.0%  0.0%    skip:73.2%
[libx264 @ 0x55b2d1ccd7c0] mb B  I16..4:  0.3%  0.0%  0.3%  B16..8: 12.5%  1.3%  0.0%  direct: 0.1%  skip:85.4%  L0:48.4% L1:51.6% BI: 0.0%
[libx264 @ 0x55b2d1ccd7c0] 8x8 transform intra:9.8% inter:28.9%
[libx264 @ 0x55b2d1ccd7c0] coded y,uvDC,uvAC intra: 12.3% 39.5% 35.1% inter: 1.1% 8.2% 7.0%
[libx264 @ 0x55b2d1ccd7c0] i16 v,h,dc,p: 91%  3%  6%  0%
[libx264 @ 0x55b2d1ccd7c0] i8 v,h,dc,ddl,ddr,vr,hd,vl,hu: 10%  0% 90%  0%  0%  0%  0%  0%  0%
[libx264 @ 0x55b2d1ccd7c0] i4 v,h,dc,ddl,ddr,vr,hd,vl,hu: 42% 40% 13%  1%  0%  2%  1%  1%  0%
[libx264 @ 0x55b2d1ccd7c0] i8c dc,h,v,p: 44% 13% 43%  0%
[libx264 @ 0x55b2d1ccd7c0] Weighted P-Frames: Y:0.0% UV:0.0%
[libx264 @ 0x55b2d1ccd7c0] ref P L0: 81.4%  1.4%  7.1% 10.0%
[libx264 @ 0x55b2d1ccd7c0] kb/s:26.70
[27/May/2024 18:28:28] "GET /?text=%D0%BF%D1%80%D0%B8%D0%B2%D0%B5%D1%82 HTTP/1.1" 302 0
[27/May/2024 18:28:28] "GET /downloads/ HTTP/1.1" 200 93396
[27/May/2024 18:28:31] "GET /update/ HTTP/1.1" 200 269
Moviepy - Done !
Moviepy - video ready out/moviepy_output.mp4
Watching for file changes with StatReloader
error: XDG_RUNTIME_DIR not set in the environment.
ALSA lib confmisc.c:855:(parse_card) cannot find card '0'
ALSA lib conf.c:5178:(_snd_config_evaluate) function snd_func_card_inum returned error: No such file or directory
ALSA lib confmisc.c:422:(snd_func_concat) error evaluating strings
ALSA lib conf.c:5178:(_snd_config_evaluate) function snd_func_concat returned error: No such file or directory
ALSA lib confmisc.c:1334:(snd_func_refer) error evaluating name
ALSA lib conf.c:5178:(_snd_config_evaluate) function snd_func_refer returned error: No such file or directory
ALSA lib conf.c:5701:(snd_config_expand) Evaluate error: No such file or directory
ALSA lib pcm.c:2664:(snd_pcm_open_noupdate) Unknown PCM default
ALSA lib confmisc.c:855:(parse_card) cannot find card '0'
ALSA lib conf.c:5178:(_snd_config_evaluate) function snd_func_card_inum returned error: No such file or directory
ALSA lib confmisc.c:422:(snd_func_concat) error evaluating strings
ALSA lib conf.c:5178:(_snd_config_evaluate) function snd_func_concat returned error: No such file or directory
ALSA lib confmisc.c:1334:(snd_func_refer) error evaluating name
ALSA lib conf.c:5178:(_snd_config_evaluate) function snd_func_refer returned error: No such file or directory
ALSA lib conf.c:5701:(snd_config_expand) Evaluate error: No such file or directory
ALSA lib pcm.c:2664:(snd_pcm_open_noupdate) Unknown PCM default
[27/May/2024 18:31:28] "GET / HTTP/1.1" 200 4520
[27/May/2024 18:32:32] "GET / HTTP/1.1" 200 4520
Performing system checks...

System check identified no issues (0 silenced).
May 27, 2024 - 18:31:17
Django version 5.0.6, using settings 'project.settings'
Starting development server at http://0.0.0.0:8000/
Quit the server with CONTROL-C.

22 56
Moviepy - Building video out/moviepy_output.mp4.
Moviepy - Writing video out/moviepy_output.mp4

t:   0%|          | 0/75 [00:00<?, ?it/s, now=None]                                                   ALSA lib confmisc.c:855:(parse_card) cannot find card '0'
ALSA lib conf.c:5178:(_snd_config_evaluate) function snd_func_card_inum returned error: No such file or directory
ALSA lib confmisc.c:422:(snd_func_concat) error evaluating strings
ALSA lib conf.c:5178:(_snd_config_evaluate) function snd_func_concat returned error: No such file or directory
ALSA lib confmisc.c:1334:(snd_func_refer) error evaluating name
ALSA lib conf.c:5178:(_snd_config_evaluate) function snd_func_refer returned error: No such file or directory
ALSA lib conf.c:5701:(snd_config_expand) Evaluate error: No such file or directory
ALSA lib pcm.c:2664:(snd_pcm_open_noupdate) Unknown PCM default
ffmpeg version 4.4.2-0ubuntu0.22.04.1 Copyright (c) 2000-2021 the FFmpeg developers
  built with gcc 11 (Ubuntu 11.2.0-19ubuntu1)
  configuration: --prefix=/usr --extra-version=0ubuntu0.22.04.1 --toolchain=hardened --libdir=/usr/lib/x86_64-linux-gnu --incdir=/usr/include/x86_64-linux-gnu --arch=amd64 --enable-gpl --disable-stripping --enable-gnutls --enable-ladspa --enable-libaom --enable-libass --enable-libbluray --enable-libbs2b --enable-libcaca --enable-libcdio --enable-libcodec2 --enable-libdav1d --enable-libflite --enable-libfontconfig --enable-libfreetype --enable-libfribidi --enable-libgme --enable-libgsm --enable-libjack --enable-libmp3lame --enable-libmysofa --enable-libopenjpeg --enable-libopenmpt --enable-libopus --enable-libpulse --enable-librabbitmq --enable-librubberband --enable-libshine --enable-libsnappy --enable-libsoxr --enable-libspeex --enable-libsrt --enable-libssh --enable-libtheora --enable-libtwolame --enable-libvidstab --enable-libvorbis --enable-libvpx --enable-libwebp --enable-libx265 --enable-libxml2 --enable-libxvid --enable-libzimg --enable-libzmq --enable-libzvbi --enable-lv2 --enable-omx --enable-openal --enable-opencl --enable-opengl --enable-sdl2 --enable-pocketsphinx --enable-librsvg --enable-libmfx --enable-libdc1394 --enable-libdrm --enable-libiec61883 --enable-chromaprint --enable-frei0r --enable-libx264 --enable-shared
  libavutil      56. 70.100 / 56. 70.100
  libavcodec     58.134.100 / 58.134.100
  libavformat    58. 76.100 / 58. 76.100
  libavdevice    58. 13.100 / 58. 13.100
  libavfilter     7.110.100 /  7.110.100
  libswscale      5.  9.100 /  5.  9.100
  libswresample   3.  9.100 /  3.  9.100
  libpostproc    55.  9.100 / 55.  9.100
Input #0, mov,mp4,m4a,3gp,3g2,mj2, from './data/background.mp4':
  Metadata:
    major_brand     : isom
    minor_version   : 512
    compatible_brands: isomiso2avc1mp41
    encoder         : Lavf61.3.103
  Duration: 00:00:03.00, start: 0.000000, bitrate: 9 kb/s
  Stream #0:0(und): Video: h264 (High) (avc1 / 0x31637661), yuv420p, 100x100 [SAR 1:1 DAR 1:1], 4 kb/s, 25 fps, 25 tbr, 12800 tbn, 50 tbc (default)
    Metadata:
      handler_name    : VideoHandler
      vendor_id       : [0][0][0][0]
      encoder         : Lavc61.5.104 libx264
Stream mapping:
  Stream #0:0 -> #0:0 (h264 (native) -> h264 (libx264))
Press [q] to stop, [?] for help
[libx264 @ 0x565408f367c0] using SAR=1/1
[libx264 @ 0x565408f367c0] using cpu capabilities: MMX2 SSE2Fast SSSE3 SSE4.2 AVX FMA3 BMI2 AVX2
[libx264 @ 0x565408f367c0] profile High, level 1.0, 4:2:0, 8-bit
[libx264 @ 0x565408f367c0] 264 - core 163 r3060 5db6aa6 - H.264/MPEG-4 AVC codec - Copyleft 2003-2021 - http://www.videolan.org/x264.html - options: cabac=1 ref=3 deblock=1:0:0 analyse=0x3:0x113 me=hex subme=7 psy=1 psy_rd=1.00:0.00 mixed_ref=1 me_range=16 chroma_me=1 trellis=1 8x8dct=1 cqm=0 deadzone=21,11 fast_pskip=1 chroma_qp_offset=-2 threads=3 lookahead_threads=1 sliced_threads=0 nr=0 decimate=1 interlaced=0 bluray_compat=0 constrained_intra=0 bframes=3 b_pyramid=2 b_adapt=1 b_bias=0 direct=1 weightb=1 open_gop=0 weightp=2 keyint=250 keyint_min=25 scenecut=40 intra_refresh=0 rc_lookahead=40 rc=crf mbtree=1 crf=23.0 qcomp=0.60 qpmin=0 qpmax=69 qpstep=4 ip_ratio=1.40 aq=1:1.00
Output #0, mp4, to 'out/ffmpeg_output.mp4':
  Metadata:
    major_brand     : isom
    minor_version   : 512
    compatible_brands: isomiso2avc1mp41
    encoder         : Lavf58.76.100
  Stream #0:0(und): Video: h264 (avc1 / 0x31637661), yuv420p(progressive), 100x100 [SAR 1:1 DAR 1:1], q=2-31, 25 fps, 12800 tbn (default)
    Metadata:
      handler_name    : VideoHandler
      vendor_id       : [0][0][0][0]
      encoder         : Lavc58.134.100 libx264
    Side data:
      cpb: bitrate max/min/avg: 0/0/0 buffer size: 0 vbv_delay: N/A
frame=    1 fps=0.0 q=0.0 size=       0kB time=00:00:00.00 bitrate=N/A speed=   0x    frame=   75 fps=0.0 q=-1.0 Lsize=      14kB time=00:00:02.88 bitrate=  40.1kbits/s speed=34.3x    
video:13kB audio:0kB subtitle:0kB other streams:0kB global headers:0kB muxing overhead: 10.888957%
[libx264 @ 0x565408f367c0] frame I:1     Avg QP: 7.14  size:    55
[libx264 @ 0x565408f367c0] frame P:61    Avg QP:18.68  size:   186
[libx264 @ 0x565408f367c0] frame B:13    Avg QP:20.44  size:    72
[libx264 @ 0x565408f367c0] consecutive B-frames: 69.3% 21.3%  4.0%  5.3%
[libx264 @ 0x565408f367c0] mb I  I16..4: 100.0%  0.0%  0.0%
[libx264 @ 0x565408f367c0] mb P  I16..4:  0.9%  1.6%  2.2%  P16..4: 24.0%  5.5%  1.7%  0.0%  0.0%    skip:64.2%
[libx264 @ 0x565408f367c0] mb B  I16..4:  2.8%  0.5%  0.9%  B16..8: 20.1%  1.6%  0.0%  direct: 0.9%  skip:73.2%  L0:49.3% L1:50.7% BI: 0.0%
[libx264 @ 0x565408f367c0] 8x8 transform intra:23.0% inter:20.4%
[libx264 @ 0x565408f367c0] coded y,uvDC,uvAC intra: 14.4% 46.5% 39.2% inter: 2.2% 8.6% 7.4%
[libx264 @ 0x565408f367c0] i16 v,h,dc,p: 79% 12% 10%  0%
[libx264 @ 0x565408f367c0] i8 v,h,dc,ddl,ddr,vr,hd,vl,hu: 20%  2% 75%  2%  0%  0%  0%  0%  0%
[libx264 @ 0x565408f367c0] i4 v,h,dc,ddl,ddr,vr,hd,vl,hu: 36% 33% 24%  1%  1%  2%  1%  1%  0%
[libx264 @ 0x565408f367c0] i8c dc,h,v,p: 49% 21% 29%  1%
[libx264 @ 0x565408f367c0] Weighted P-Frames: Y:0.0% UV:0.0%
[libx264 @ 0x565408f367c0] ref P L0: 42.9%  2.0% 34.9% 20.3%
[libx264 @ 0x565408f367c0] ref B L0: 88.2%  8.8%  2.9%
[libx264 @ 0x565408f367c0] kb/s:32.84
[27/May/2024 18:32:35] "GET /?text=%D0%A5%D0%B5%D0%BB%D0%BB%D0%BE%D1%83%20%D0%BC%D0%B8%D1%80! HTTP/1.1" 302 0
[27/May/2024 18:32:35] "GET /downloads/ HTTP/1.1" 200 138010
[27/May/2024 18:32:36] "GET /update/ HTTP/1.1" 200 269
[27/May/2024 18:35:23] "GET / HTTP/1.1" 200 4520
/home/itSolution/main/views.py changed, reloading.
Moviepy - Done !
Moviepy - video ready out/moviepy_output.mp4
Watching for file changes with StatReloader
error: XDG_RUNTIME_DIR not set in the environment.
ALSA lib confmisc.c:855:(parse_card) cannot find card '0'
ALSA lib conf.c:5178:(_snd_config_evaluate) function snd_func_card_inum returned error: No such file or directory
ALSA lib confmisc.c:422:(snd_func_concat) error evaluating strings
ALSA lib conf.c:5178:(_snd_config_evaluate) function snd_func_concat returned error: No such file or directory
ALSA lib confmisc.c:1334:(snd_func_refer) error evaluating name
ALSA lib conf.c:5178:(_snd_config_evaluate) function snd_func_refer returned error: No such file or directory
ALSA lib conf.c:5701:(snd_config_expand) Evaluate error: No such file or directory
ALSA lib pcm.c:2664:(snd_pcm_open_noupdate) Unknown PCM default
ALSA lib confmisc.c:855:(parse_card) cannot find card '0'
ALSA lib conf.c:5178:(_snd_config_evaluate) function snd_func_card_inum returned error: No such file or directory
ALSA lib confmisc.c:422:(snd_func_concat) error evaluating strings
ALSA lib conf.c:5178:(_snd_config_evaluate) function snd_func_concat returned error: No such file or directory
ALSA lib confmisc.c:1334:(snd_func_refer) error evaluating name
ALSA lib conf.c:5178:(_snd_config_evaluate) function snd_func_refer returned error: No such file or directory
ALSA lib conf.c:5701:(snd_config_expand) Evaluate error: No such file or directory
ALSA lib pcm.c:2664:(snd_pcm_open_noupdate) Unknown PCM default
[27/May/2024 18:39:41] "GET / HTTP/1.1" 200 4520
[27/May/2024 18:39:44] "GET /update/ HTTP/1.1" 200 580
Performing system checks...

System check identified no issues (0 silenced).
May 27, 2024 - 18:39:41
Django version 5.0.6, using settings 'project.settings'
Starting development server at http://0.0.0.0:8000/
Quit the server with CONTROL-C.

22 56
Moviepy - Building video out/moviepy_output.mp4.
Moviepy - Writing video out/moviepy_output.mp4

t:   0%|          | 0/75 [00:00<?, ?it/s, now=None]                                                   ALSA lib confmisc.c:855:(parse_card) cannot find card '0'
ALSA lib conf.c:5178:(_snd_config_evaluate) function snd_func_card_inum returned error: No such file or directory
ALSA lib confmisc.c:422:(snd_func_concat) error evaluating strings
ALSA lib conf.c:5178:(_snd_config_evaluate) function snd_func_concat returned error: No such file or directory
ALSA lib confmisc.c:1334:(snd_func_refer) error evaluating name
ALSA lib conf.c:5178:(_snd_config_evaluate) function snd_func_refer returned error: No such file or directory
ALSA lib conf.c:5701:(snd_config_expand) Evaluate error: No such file or directory
ALSA lib pcm.c:2664:(snd_pcm_open_noupdate) Unknown PCM default
ffmpeg version 4.4.2-0ubuntu0.22.04.1 Copyright (c) 2000-2021 the FFmpeg developers
  built with gcc 11 (Ubuntu 11.2.0-19ubuntu1)
  configuration: --prefix=/usr --extra-version=0ubuntu0.22.04.1 --toolchain=hardened --libdir=/usr/lib/x86_64-linux-gnu --incdir=/usr/include/x86_64-linux-gnu --arch=amd64 --enable-gpl --disable-stripping --enable-gnutls --enable-ladspa --enable-libaom --enable-libass --enable-libbluray --enable-libbs2b --enable-libcaca --enable-libcdio --enable-libcodec2 --enable-libdav1d --enable-libflite --enable-libfontconfig --enable-libfreetype --enable-libfribidi --enable-libgme --enable-libgsm --enable-libjack --enable-libmp3lame --enable-libmysofa --enable-libopenjpeg --enable-libopenmpt --enable-libopus --enable-libpulse --enable-librabbitmq --enable-librubberband --enable-libshine --enable-libsnappy --enable-libsoxr --enable-libspeex --enable-libsrt --enable-libssh --enable-libtheora --enable-libtwolame --enable-libvidstab --enable-libvorbis --enable-libvpx --enable-libwebp --enable-libx265 --enable-libxml2 --enable-libxvid --enable-libzimg --enable-libzmq --enable-libzvbi --enable-lv2 --enable-omx --enable-openal --enable-opencl --enable-opengl --enable-sdl2 --enable-pocketsphinx --enable-librsvg --enable-libmfx --enable-libdc1394 --enable-libdrm --enable-libiec61883 --enable-chromaprint --enable-frei0r --enable-libx264 --enable-shared
  libavutil      56. 70.100 / 56. 70.100
  libavcodec     58.134.100 / 58.134.100
  libavformat    58. 76.100 / 58. 76.100
  libavdevice    58. 13.100 / 58. 13.100
  libavfilter     7.110.100 /  7.110.100
  libswscale      5.  9.100 /  5.  9.100
  libswresample   3.  9.100 /  3.  9.100
  libpostproc    55.  9.100 / 55.  9.100
Input #0, mov,mp4,m4a,3gp,3g2,mj2, from './data/background.mp4':
  Metadata:
    major_brand     : isom
    minor_version   : 512
    compatible_brands: isomiso2avc1mp41
    encoder         : Lavf61.3.103
  Duration: 00:00:03.00, start: 0.000000, bitrate: 9 kb/s
  Stream #0:0(und): Video: h264 (High) (avc1 / 0x31637661), yuv420p, 100x100 [SAR 1:1 DAR 1:1], 4 kb/s, 25 fps, 25 tbr, 12800 tbn, 50 tbc (default)
    Metadata:
      handler_name    : VideoHandler
      vendor_id       : [0][0][0][0]
      encoder         : Lavc61.5.104 libx264
Stream mapping:
  Stream #0:0 -> #0:0 (h264 (native) -> h264 (libx264))
Press [q] to stop, [?] for help
[libx264 @ 0x5595d4d227c0] using SAR=1/1
[libx264 @ 0x5595d4d227c0] using cpu capabilities: MMX2 SSE2Fast SSSE3 SSE4.2 AVX FMA3 BMI2 AVX2
[libx264 @ 0x5595d4d227c0] profile High, level 1.0, 4:2:0, 8-bit
[libx264 @ 0x5595d4d227c0] 264 - core 163 r3060 5db6aa6 - H.264/MPEG-4 AVC codec - Copyleft 2003-2021 - http://www.videolan.org/x264.html - options: cabac=1 ref=3 deblock=1:0:0 analyse=0x3:0x113 me=hex subme=7 psy=1 psy_rd=1.00:0.00 mixed_ref=1 me_range=16 chroma_me=1 trellis=1 8x8dct=1 cqm=0 deadzone=21,11 fast_pskip=1 chroma_qp_offset=-2 threads=3 lookahead_threads=1 sliced_threads=0 nr=0 decimate=1 interlaced=0 bluray_compat=0 constrained_intra=0 bframes=3 b_pyramid=2 b_adapt=1 b_bias=0 direct=1 weightb=1 open_gop=0 weightp=2 keyint=250 keyint_min=25 scenecut=40 intra_refresh=0 rc_lookahead=40 rc=crf mbtree=1 crf=23.0 qcomp=0.60 qpmin=0 qpmax=69 qpstep=4 ip_ratio=1.40 aq=1:1.00
Output #0, mp4, to 'out/ffmpeg_output.mp4':
  Metadata:
    major_brand     : isom
    minor_version   : 512
    compatible_brands: isomiso2avc1mp41
    encoder         : Lavf58.76.100
  Stream #0:0(und): Video: h264 (avc1 / 0x31637661), yuv420p(progressive), 100x100 [SAR 1:1 DAR 1:1], q=2-31, 25 fps, 12800 tbn (default)
    Metadata:
      handler_name    : VideoHandler
      vendor_id       : [0][0][0][0]
      encoder         : Lavc58.134.100 libx264
    Side data:
      cpb: bitrate max/min/avg: 0/0/0 buffer size: 0 vbv_delay: N/A
frame=    1 fps=0.0 q=0.0 size=       0kB time=00:00:00.00 bitrate=N/A speed=   0x    frame=   75 fps=0.0 q=-1.0 Lsize=      10kB time=00:00:02.88 bitrate=  28.2kbits/s speed=42.9x    
video:8kB audio:0kB subtitle:0kB other streams:0kB global headers:0kB muxing overhead: 17.691328%
[libx264 @ 0x5595d4d227c0] frame I:1     Avg QP: 7.78  size:    55
[libx264 @ 0x5595d4d227c0] frame P:48    Avg QP:16.83  size:   134
[libx264 @ 0x5595d4d227c0] frame B:26    Avg QP:18.29  size:    57
[libx264 @ 0x5595d4d227c0] consecutive B-frames: 45.3% 18.7% 20.0% 16.0%
[libx264 @ 0x5595d4d227c0] mb I  I16..4: 100.0%  0.0%  0.0%
[libx264 @ 0x5595d4d227c0] mb P  I16..4:  5.4%  1.2%  2.2%  P16..4: 22.1%  3.7%  1.1%  0.0%  0.0%    skip:64.2%
[libx264 @ 0x5595d4d227c0] mb B  I16..4:  1.8%  0.3%  0.1%  B16..8: 21.7%  2.0%  0.1%  direct: 2.4%  skip:71.7%  L0:50.8% L1:48.6% BI: 0.7%
[libx264 @ 0x5595d4d227c0] 8x8 transform intra:11.5% inter:28.8%
[libx264 @ 0x5595d4d227c0] coded y,uvDC,uvAC intra: 8.4% 29.0% 25.2% inter: 1.1% 6.3% 5.1%
[libx264 @ 0x5595d4d227c0] i16 v,h,dc,p: 90%  6%  4%  0%
[libx264 @ 0x5595d4d227c0] i8 v,h,dc,ddl,ddr,vr,hd,vl,hu: 18%  5% 77%  0%  0%  0%  1%  0%  0%
[libx264 @ 0x5595d4d227c0] i4 v,h,dc,ddl,ddr,vr,hd,vl,hu: 51% 26% 19%  1%  0%  1%  0%  1%  0%
[libx264 @ 0x5595d4d227c0] i8c dc,h,v,p: 32% 10% 58%  1%
[libx264 @ 0x5595d4d227c0] Weighted P-Frames: Y:0.0% UV:0.0%
[libx264 @ 0x5595d4d227c0] ref P L0: 35.0%  0.7% 46.0% 18.2%
[libx264 @ 0x5595d4d227c0] ref B L0: 69.6% 25.0%  5.4%
[libx264 @ 0x5595d4d227c0] ref B L1: 98.7%  1.3%
[libx264 @ 0x5595d4d227c0] kb/s:21.19
[27/May/2024 18:39:49] "GET /?text=%D0%9F%D0%A0%D0%98%D0%92%D0%95%D0%A2 HTTP/1.1" 302 0
[27/May/2024 18:39:49] "GET /downloads/ HTTP/1.1" 200 98925
[27/May/2024 18:39:52] "GET /update/ HTTP/1.1" 200 540
Moviepy - Done !
Moviepy - video ready out/moviepy_output.mp4
22 56
Moviepy - Building video out/moviepy_output.mp4.
Moviepy - Writing video out/moviepy_output.mp4

t:   0%|          | 0/75 [00:00<?, ?it/s, now=None]                                                   error: XDG_RUNTIME_DIR not set in the environment.
ALSA lib confmisc.c:855:(parse_card) cannot find card '0'
ALSA lib conf.c:5178:(_snd_config_evaluate) function snd_func_card_inum returned error: No such file or directory
ALSA lib confmisc.c:422:(snd_func_concat) error evaluating strings
ALSA lib conf.c:5178:(_snd_config_evaluate) function snd_func_concat returned error: No such file or directory
ALSA lib confmisc.c:1334:(snd_func_refer) error evaluating name
ALSA lib conf.c:5178:(_snd_config_evaluate) function snd_func_refer returned error: No such file or directory
ALSA lib conf.c:5701:(snd_config_expand) Evaluate error: No such file or directory
ALSA lib pcm.c:2664:(snd_pcm_open_noupdate) Unknown PCM default
ffmpeg version 4.4.2-0ubuntu0.22.04.1 Copyright (c) 2000-2021 the FFmpeg developers
  built with gcc 11 (Ubuntu 11.2.0-19ubuntu1)
  configuration: --prefix=/usr --extra-version=0ubuntu0.22.04.1 --toolchain=hardened --libdir=/usr/lib/x86_64-linux-gnu --incdir=/usr/include/x86_64-linux-gnu --arch=amd64 --enable-gpl --disable-stripping --enable-gnutls --enable-ladspa --enable-libaom --enable-libass --enable-libbluray --enable-libbs2b --enable-libcaca --enable-libcdio --enable-libcodec2 --enable-libdav1d --enable-libflite --enable-libfontconfig --enable-libfreetype --enable-libfribidi --enable-libgme --enable-libgsm --enable-libjack --enable-libmp3lame --enable-libmysofa --enable-libopenjpeg --enable-libopenmpt --enable-libopus --enable-libpulse --enable-librabbitmq --enable-librubberband --enable-libshine --enable-libsnappy --enable-libsoxr --enable-libspeex --enable-libsrt --enable-libssh --enable-libtheora --enable-libtwolame --enable-libvidstab --enable-libvorbis --enable-libvpx --enable-libwebp --enable-libx265 --enable-libxml2 --enable-libxvid --enable-libzimg --enable-libzmq --enable-libzvbi --enable-lv2 --enable-omx --enable-openal --enable-opencl --enable-opengl --enable-sdl2 --enable-pocketsphinx --enable-librsvg --enable-libmfx --enable-libdc1394 --enable-libdrm --enable-libiec61883 --enable-chromaprint --enable-frei0r --enable-libx264 --enable-shared
  libavutil      56. 70.100 / 56. 70.100
  libavcodec     58.134.100 / 58.134.100
  libavformat    58. 76.100 / 58. 76.100
  libavdevice    58. 13.100 / 58. 13.100
  libavfilter     7.110.100 /  7.110.100
  libswscale      5.  9.100 /  5.  9.100
  libswresample   3.  9.100 /  3.  9.100
  libpostproc    55.  9.100 / 55.  9.100
Input #0, mov,mp4,m4a,3gp,3g2,mj2, from './data/background.mp4':
  Metadata:
    major_brand     : isom
    minor_version   : 512
    compatible_brands: isomiso2avc1mp41
    encoder         : Lavf61.3.103
  Duration: 00:00:03.00, start: 0.000000, bitrate: 9 kb/s
  Stream #0:0(und): Video: h264 (High) (avc1 / 0x31637661), yuv420p, 100x100 [SAR 1:1 DAR 1:1], 4 kb/s, 25 fps, 25 tbr, 12800 tbn, 50 tbc (default)
    Metadata:
      handler_name    : VideoHandler
      vendor_id       : [0][0][0][0]
      encoder         : Lavc61.5.104 libx264
Stream mapping:
  Stream #0:0 -> #0:0 (h264 (native) -> h264 (libx264))
Press [q] to stop, [?] for help
[libx264 @ 0x563e9c7c07c0] using SAR=1/1
[libx264 @ 0x563e9c7c07c0] using cpu capabilities: MMX2 SSE2Fast SSSE3 SSE4.2 AVX FMA3 BMI2 AVX2
[libx264 @ 0x563e9c7c07c0] profile High, level 1.0, 4:2:0, 8-bit
[libx264 @ 0x563e9c7c07c0] 264 - core 163 r3060 5db6aa6 - H.264/MPEG-4 AVC codec - Copyleft 2003-2021 - http://www.videolan.org/x264.html - options: cabac=1 ref=3 deblock=1:0:0 analyse=0x3:0x113 me=hex subme=7 psy=1 psy_rd=1.00:0.00 mixed_ref=1 me_range=16 chroma_me=1 trellis=1 8x8dct=1 cqm=0 deadzone=21,11 fast_pskip=1 chroma_qp_offset=-2 threads=3 lookahead_threads=1 sliced_threads=0 nr=0 decimate=1 interlaced=0 bluray_compat=0 constrained_intra=0 bframes=3 b_pyramid=2 b_adapt=1 b_bias=0 direct=1 weightb=1 open_gop=0 weightp=2 keyint=250 keyint_min=25 scenecut=40 intra_refresh=0 rc_lookahead=40 rc=crf mbtree=1 crf=23.0 qcomp=0.60 qpmin=0 qpmax=69 qpstep=4 ip_ratio=1.40 aq=1:1.00
Output #0, mp4, to 'out/ffmpeg_output.mp4':
  Metadata:
    major_brand     : isom
    minor_version   : 512
    compatible_brands: isomiso2avc1mp41
    encoder         : Lavf58.76.100
  Stream #0:0(und): Video: h264 (avc1 / 0x31637661), yuv420p(progressive), 100x100 [SAR 1:1 DAR 1:1], q=2-31, 25 fps, 12800 tbn (default)
    Metadata:
      handler_name    : VideoHandler
      vendor_id       : [0][0][0][0]
      encoder         : Lavc58.134.100 libx264
    Side data:
      cpb: bitrate max/min/avg: 0/0/0 buffer size: 0 vbv_delay: N/A
frame=    1 fps=0.0 q=0.0 size=       0kB time=00:00:00.00 bitrate=N/A speed=   0x    frame=   75 fps=0.0 q=-1.0 Lsize=      21kB time=00:00:02.88 bitrate=  60.5kbits/s speed=30.9x    
video:20kB audio:0kB subtitle:0kB other streams:0kB global headers:0kB muxing overhead: 7.498397%
[libx264 @ 0x563e9c7c07c0] frame I:2     Avg QP:15.05  size:   184
[libx264 @ 0x563e9c7c07c0] frame P:51    Avg QP:22.61  size:   330
[libx264 @ 0x563e9c7c07c0] frame B:22    Avg QP:21.47  size:   108
[libx264 @ 0x563e9c7c07c0] consecutive B-frames: 52.0% 24.0%  8.0% 16.0%
[libx264 @ 0x563e9c7c07c0] mb I  I16..4: 81.6% 13.3%  5.1%
[libx264 @ 0x563e9c7c07c0] mb P  I16..4:  3.1%  3.9%  4.9%  P16..4: 17.0%  8.1%  5.6%  0.0%  0.0%    skip:57.3%
[libx264 @ 0x563e9c7c07c0] mb B  I16..4:  4.9%  0.9%  2.1%  B16..8: 25.2%  4.8%  0.9%  direct: 0.5%  skip:60.7%  L0:48.6% L1:49.2% BI: 2.2%
[libx264 @ 0x563e9c7c07c0] 8x8 transform intra:25.1% inter:19.0%
[libx264 @ 0x563e9c7c07c0] coded y,uvDC,uvAC intra: 14.4% 36.7% 33.6% inter: 5.6% 11.4% 10.3%
[libx264 @ 0x563e9c7c07c0] i16 v,h,dc,p: 80% 12%  8%  0%
[libx264 @ 0x563e9c7c07c0] i8 v,h,dc,ddl,ddr,vr,hd,vl,hu: 20%  3% 75%  1%  0%  0%  0%  0%  0%
[libx264 @ 0x563e9c7c07c0] i4 v,h,dc,ddl,ddr,vr,hd,vl,hu: 42% 30% 19%  2%  1%  2%  2%  2%  2%
[libx264 @ 0x563e9c7c07c0] i8c dc,h,v,p: 57% 12% 29%  1%
[libx264 @ 0x563e9c7c07c0] Weighted P-Frames: Y:0.0% UV:0.0%
[libx264 @ 0x563e9c7c07c0] ref P L0: 63.2%  6.8% 18.7% 11.3%
[libx264 @ 0x563e9c7c07c0] ref B L0: 80.7% 14.6%  4.7%
[libx264 @ 0x563e9c7c07c0] ref B L1: 98.9%  1.1%
[libx264 @ 0x563e9c7c07c0] kb/s:52.22
[27/May/2024 18:40:05] "GET /?text=dsjakjsa+asjd+kasj+dlkasjlwqj+adajs+kljl+%D0%B0%D1%8B%D0%B2%D0%B0%D1%8B%D0%B2 HTTP/1.1" 302 0
[27/May/2024 18:40:05] "GET /downloads/ HTTP/1.1" 200 426739
[27/May/2024 18:40:06] "GET /update/ HTTP/1.1" 200 622
Moviepy - Done !
Moviepy - video ready out/moviepy_output.mp4
22 56
Moviepy - Building video out/moviepy_output.mp4.
Moviepy - Writing video out/moviepy_output.mp4

t:   0%|          | 0/75 [00:00<?, ?it/s, now=None]t:  91%|█████████ | 68/75 [00:00<00:00, 664.86it/s, now=None]                                                             error: XDG_RUNTIME_DIR not set in the environment.
ALSA lib confmisc.c:855:(parse_card) cannot find card '0'
ALSA lib conf.c:5178:(_snd_config_evaluate) function snd_func_card_inum returned error: No such file or directory
ALSA lib confmisc.c:422:(snd_func_concat) error evaluating strings
ALSA lib conf.c:5178:(_snd_config_evaluate) function snd_func_concat returned error: No such file or directory
ALSA lib confmisc.c:1334:(snd_func_refer) error evaluating name
ALSA lib conf.c:5178:(_snd_config_evaluate) function snd_func_refer returned error: No such file or directory
ALSA lib conf.c:5701:(snd_config_expand) Evaluate error: No such file or directory
ALSA lib pcm.c:2664:(snd_pcm_open_noupdate) Unknown PCM default
ffmpeg version 4.4.2-0ubuntu0.22.04.1 Copyright (c) 2000-2021 the FFmpeg developers
  built with gcc 11 (Ubuntu 11.2.0-19ubuntu1)
  configuration: --prefix=/usr --extra-version=0ubuntu0.22.04.1 --toolchain=hardened --libdir=/usr/lib/x86_64-linux-gnu --incdir=/usr/include/x86_64-linux-gnu --arch=amd64 --enable-gpl --disable-stripping --enable-gnutls --enable-ladspa --enable-libaom --enable-libass --enable-libbluray --enable-libbs2b --enable-libcaca --enable-libcdio --enable-libcodec2 --enable-libdav1d --enable-libflite --enable-libfontconfig --enable-libfreetype --enable-libfribidi --enable-libgme --enable-libgsm --enable-libjack --enable-libmp3lame --enable-libmysofa --enable-libopenjpeg --enable-libopenmpt --enable-libopus --enable-libpulse --enable-librabbitmq --enable-librubberband --enable-libshine --enable-libsnappy --enable-libsoxr --enable-libspeex --enable-libsrt --enable-libssh --enable-libtheora --enable-libtwolame --enable-libvidstab --enable-libvorbis --enable-libvpx --enable-libwebp --enable-libx265 --enable-libxml2 --enable-libxvid --enable-libzimg --enable-libzmq --enable-libzvbi --enable-lv2 --enable-omx --enable-openal --enable-opencl --enable-opengl --enable-sdl2 --enable-pocketsphinx --enable-librsvg --enable-libmfx --enable-libdc1394 --enable-libdrm --enable-libiec61883 --enable-chromaprint --enable-frei0r --enable-libx264 --enable-shared
  libavutil      56. 70.100 / 56. 70.100
  libavcodec     58.134.100 / 58.134.100
  libavformat    58. 76.100 / 58. 76.100
  libavdevice    58. 13.100 / 58. 13.100
  libavfilter     7.110.100 /  7.110.100
  libswscale      5.  9.100 /  5.  9.100
  libswresample   3.  9.100 /  3.  9.100
  libpostproc    55.  9.100 / 55.  9.100
Input #0, mov,mp4,m4a,3gp,3g2,mj2, from './data/background.mp4':
  Metadata:
    major_brand     : isom
    minor_version   : 512
    compatible_brands: isomiso2avc1mp41
    encoder         : Lavf61.3.103
  Duration: 00:00:03.00, start: 0.000000, bitrate: 9 kb/s
  Stream #0:0(und): Video: h264 (High) (avc1 / 0x31637661), yuv420p, 100x100 [SAR 1:1 DAR 1:1], 4 kb/s, 25 fps, 25 tbr, 12800 tbn, 50 tbc (default)
    Metadata:
      handler_name    : VideoHandler
      vendor_id       : [0][0][0][0]
      encoder         : Lavc61.5.104 libx264
Stream mapping:
  Stream #0:0 -> #0:0 (h264 (native) -> h264 (libx264))
Press [q] to stop, [?] for help
[libx264 @ 0x55fc040cf7c0] using SAR=1/1
[libx264 @ 0x55fc040cf7c0] using cpu capabilities: MMX2 SSE2Fast SSSE3 SSE4.2 AVX FMA3 BMI2 AVX2
[libx264 @ 0x55fc040cf7c0] profile High, level 1.0, 4:2:0, 8-bit
[libx264 @ 0x55fc040cf7c0] 264 - core 163 r3060 5db6aa6 - H.264/MPEG-4 AVC codec - Copyleft 2003-2021 - http://www.videolan.org/x264.html - options: cabac=1 ref=3 deblock=1:0:0 analyse=0x3:0x113 me=hex subme=7 psy=1 psy_rd=1.00:0.00 mixed_ref=1 me_range=16 chroma_me=1 trellis=1 8x8dct=1 cqm=0 deadzone=21,11 fast_pskip=1 chroma_qp_offset=-2 threads=3 lookahead_threads=1 sliced_threads=0 nr=0 decimate=1 interlaced=0 bluray_compat=0 constrained_intra=0 bframes=3 b_pyramid=2 b_adapt=1 b_bias=0 direct=1 weightb=1 open_gop=0 weightp=2 keyint=250 keyint_min=25 scenecut=40 intra_refresh=0 rc_lookahead=40 rc=crf mbtree=1 crf=23.0 qcomp=0.60 qpmin=0 qpmax=69 qpstep=4 ip_ratio=1.40 aq=1:1.00
Output #0, mp4, to 'out/ffmpeg_output.mp4':
  Metadata:
    major_brand     : isom
    minor_version   : 512
    compatible_brands: isomiso2avc1mp41
    encoder         : Lavf58.76.100
  Stream #0:0(und): Video: h264 (avc1 / 0x31637661), yuv420p(progressive), 100x100 [SAR 1:1 DAR 1:1], q=2-31, 25 fps, 12800 tbn (default)
    Metadata:
      handler_name    : VideoHandler
      vendor_id       : [0][0][0][0]
      encoder         : Lavc58.134.100 libx264
    Side data:
      cpb: bitrate max/min/avg: 0/0/0 buffer size: 0 vbv_delay: N/A
frame=    1 fps=0.0 q=0.0 size=       0kB time=00:00:00.00 bitrate=N/A speed=   0x    frame=   75 fps=0.0 q=-1.0 Lsize=      21kB time=00:00:02.88 bitrate=  60.5kbits/s speed=27.3x    
video:20kB audio:0kB subtitle:0kB other streams:0kB global headers:0kB muxing overhead: 7.498397%
[libx264 @ 0x55fc040cf7c0] frame I:2     Avg QP:15.05  size:   184
[libx264 @ 0x55fc040cf7c0] frame P:51    Avg QP:22.61  size:   330
[libx264 @ 0x55fc040cf7c0] frame B:22    Avg QP:21.47  size:   108
[libx264 @ 0x55fc040cf7c0] consecutive B-frames: 52.0% 24.0%  8.0% 16.0%
[libx264 @ 0x55fc040cf7c0] mb I  I16..4: 81.6% 13.3%  5.1%
[libx264 @ 0x55fc040cf7c0] mb P  I16..4:  3.1%  3.9%  4.9%  P16..4: 17.0%  8.1%  5.6%  0.0%  0.0%    skip:57.3%
[libx264 @ 0x55fc040cf7c0] mb B  I16..4:  4.9%  0.9%  2.1%  B16..8: 25.2%  4.8%  0.9%  direct: 0.5%  skip:60.7%  L0:48.6% L1:49.2% BI: 2.2%
[libx264 @ 0x55fc040cf7c0] 8x8 transform intra:25.1% inter:19.0%
[libx264 @ 0x55fc040cf7c0] coded y,uvDC,uvAC intra: 14.4% 36.7% 33.6% inter: 5.6% 11.4% 10.3%
[libx264 @ 0x55fc040cf7c0] i16 v,h,dc,p: 80% 12%  8%  0%
[libx264 @ 0x55fc040cf7c0] i8 v,h,dc,ddl,ddr,vr,hd,vl,hu: 20%  3% 75%  1%  0%  0%  0%  0%  0%
[libx264 @ 0x55fc040cf7c0] i4 v,h,dc,ddl,ddr,vr,hd,vl,hu: 42% 30% 19%  2%  1%  2%  2%  2%  2%
[libx264 @ 0x55fc040cf7c0] i8c dc,h,v,p: 57% 12% 29%  1%
[libx264 @ 0x55fc040cf7c0] Weighted P-Frames: Y:0.0% UV:0.0%
[libx264 @ 0x55fc040cf7c0] ref P L0: 63.2%  6.8% 18.7% 11.3%
[libx264 @ 0x55fc040cf7c0] ref B L0: 80.7% 14.6%  4.7%
[libx264 @ 0x55fc040cf7c0] ref B L1: 98.9%  1.1%
[libx264 @ 0x55fc040cf7c0] kb/s:52.22
[27/May/2024 18:40:11] "GET /?text=dsjakjsa%20asjd%20kasj%20dlkasjlwqj%20adajs%20kljl%20%D0%B0%D1%8B%D0%B2%D0%B0%D1%8B%D0%B2 HTTP/1.1" 302 0
[27/May/2024 18:40:11] "GET /downloads/ HTTP/1.1" 200 426739
[27/May/2024 18:40:12] "GET /update/ HTTP/1.1" 200 752
